solid Visualization Toolkit generated SLA File
 facet normal 0.22158174226724606 0.09178216439234034 0.97081283767432192
  outer loop
   vertex 0.21694186329841614 0 0.45048442482948303
   vertex 0.15340106189250946 0.15340106189250946 0.45048442482948303
   vertex 0 0 0.5
  endloop
 endfacet
 facet normal 0.09178216439234034 0.22158174226724606 0.97081283767432192
  outer loop
   vertex 0.15340106189250946 0.15340106189250946 0.45048442482948303
   vertex 1.3283858065930969e-17 0.21694186329841614 0.45048442482948303
   vertex 0 0 0.5
  endloop
 endfacet
 facet normal -0.09178216439234034 0.22158174226724606 0.97081283767432192
  outer loop
   vertex 1.3283858065930969e-17 0.21694186329841614 0.45048442482948303
   vertex -0.15340106189250946 0.15340106189250946 0.45048442482948303
   vertex 0 0 0.5
  endloop
 endfacet
 facet normal -0.22158174226724606 0.091782164392340368 0.97081283767432192
  outer loop
   vertex -0.15340106189250946 0.15340106189250946 0.45048442482948303
   vertex -0.21694186329841614 2.6567716131861939e-17 0.45048442482948303
   vertex 0 0 0.5
  endloop
 endfacet
 facet normal -0.22158174226724611 -0.09178216439234034 0.97081283767432192
  outer loop
   vertex -0.21694186329841614 2.6567716131861939e-17 0.45048442482948303
   vertex -0.15340106189250946 -0.15340106189250946 0.45048442482948303
   vertex 0 0 0.5
  endloop
 endfacet
 facet normal -0.091782164392340368 -0.22158174226724606 0.97081283767432192
  outer loop
   vertex -0.15340106189250946 -0.15340106189250946 0.45048442482948303
   vertex -3.9851573370612296e-17 -0.21694186329841614 0.45048442482948303
   vertex 0 0 0.5
  endloop
 endfacet
 facet normal 0.09178216439234034 -0.22158174226724611 0.97081283767432192
  outer loop
   vertex -3.9851573370612296e-17 -0.21694186329841614 0.45048442482948303
   vertex 0.15340106189250946 -0.15340106189250946 0.45048442482948303
   vertex 0 0 0.5
  endloop
 endfacet
 facet normal 0.22158174226724606 -0.09178216439234034 0.97081283767432192
  outer loop
   vertex 0.15340106189250946 -0.15340106189250946 0.45048442482948303
   vertex 0.21694186329841614 0 0.45048442482948303
   vertex 0 0 0.5
  endloop
 endfacet
 facet normal 0.22158174226724606 0.09178216439234034 -0.97081283767432192
  outer loop
   vertex 0.21694186329841614 0 -0.45048442482948303
   vertex 0 0 -0.5
   vertex 0.15340106189250946 0.15340106189250946 -0.45048442482948303
  endloop
 endfacet
 facet normal 0.09178216439234034 0.22158174226724603 -0.97081283767432192
  outer loop
   vertex 0.15340106189250946 0.15340106189250946 -0.45048442482948303
   vertex 0 0 -0.5
   vertex 1.3283858065930969e-17 0.21694186329841614 -0.45048442482948303
  endloop
 endfacet
 facet normal -0.09178216439234034 0.22158174226724608 -0.97081283767432192
  outer loop
   vertex 1.3283858065930969e-17 0.21694186329841614 -0.45048442482948303
   vertex 0 0 -0.5
   vertex -0.15340106189250946 0.15340106189250946 -0.45048442482948303
  endloop
 endfacet
 facet normal -0.22158174226724606 0.091782164392340368 -0.97081283767432192
  outer loop
   vertex -0.15340106189250946 0.15340106189250946 -0.45048442482948303
   vertex 0 0 -0.5
   vertex -0.21694186329841614 2.6567716131861939e-17 -0.45048442482948303
  endloop
 endfacet
 facet normal -0.22158174226724606 -0.091782164392340326 -0.97081283767432192
  outer loop
   vertex -0.21694186329841614 2.6567716131861939e-17 -0.45048442482948303
   vertex 0 0 -0.5
   vertex -0.15340106189250946 -0.15340106189250946 -0.45048442482948303
  endloop
 endfacet
 facet normal -0.091782164392340368 -0.22158174226724606 -0.97081283767432192
  outer loop
   vertex -0.15340106189250946 -0.15340106189250946 -0.45048442482948303
   vertex 0 0 -0.5
   vertex -3.9851573370612296e-17 -0.21694186329841614 -0.45048442482948303
  endloop
 endfacet
 facet normal 0.091782164392340326 -0.22158174226724606 -0.97081283767432192
  outer loop
   vertex -3.9851573370612296e-17 -0.21694186329841614 -0.45048442482948303
   vertex 0 0 -0.5
   vertex 0.15340106189250946 -0.15340106189250946 -0.45048442482948303
  endloop
 endfacet
 facet normal 0.22158174226724606 -0.09178216439234034 -0.97081283767432192
  outer loop
   vertex 0.15340106189250946 -0.15340106189250946 -0.45048442482948303
   vertex 0 0 -0.5
   vertex 0.21694186329841614 0 -0.45048442482948303
  endloop
 endfacet
 facet normal 0.60368271906527471 0.25005361895540712 0.75699429479307201
  outer loop
   vertex 0.21694186329841614 0 0.45048442482948303
   vertex 0.39091575145721436 0 0.31174489855766296
   vertex 0.27641916275024414 0.27641916275024414 0.31174489855766296
  endloop
 endfacet
 facet normal 0.60368276690211964 0.25005359370181041 0.75699426498634126
  outer loop
   vertex 0.21694186329841614 0 0.45048442482948303
   vertex 0.27641916275024414 0.27641916275024414 0.31174489855766296
   vertex 0.15340106189250946 0.15340106189250946 0.45048442482948303
  endloop
 endfacet
 facet normal 0.84410372799203359 0.34963919222193302 0.40649887041951915
  outer loop
   vertex 0.39091575145721436 0 0.31174489855766296
   vertex 0.48746395111083984 0 0.11126046627759933
   vertex 0.34468907117843628 0.34468907117843628 0.11126046627759933
  endloop
 endfacet
 facet normal 0.84410364925349635 0.34963924857103584 0.40649898545459112
  outer loop
   vertex 0.39091575145721436 0 0.31174489855766296
   vertex 0.34468907117843628 0.34468907117843628 0.11126046627759933
   vertex 0.27641916275024414 0.27641916275024414 0.31174489855766296
  endloop
 endfacet
 facet normal 0.92387954023595487 0.38268341371609099 -0
  outer loop
   vertex 0.48746395111083984 0 0.11126046627759933
   vertex 0.48746395111083984 0 -0.11126046627759933
   vertex 0.34468907117843628 0.34468907117843628 -0.11126046627759933
  endloop
 endfacet
 facet normal 0.92387954023595487 0.38268341371609099 -0
  outer loop
   vertex 0.48746395111083984 0 0.11126046627759933
   vertex 0.34468907117843628 0.34468907117843628 -0.11126046627759933
   vertex 0.34468907117843628 0.34468907117843628 0.11126046627759933
  endloop
 endfacet
 facet normal 0.84410370173602567 0.34963927031001552 -0.40649885777529399
  outer loop
   vertex 0.48746395111083984 0 -0.11126046627759933
   vertex 0.39091575145721436 0 -0.31174489855766296
   vertex 0.27641916275024414 0.27641916275024414 -0.31174489855766296
  endloop
 endfacet
 facet normal 0.8441036859043114 0.34963917478862866 -0.40649897281036551
  outer loop
   vertex 0.48746395111083984 0 -0.11126046627759933
   vertex 0.27641916275024414 0.27641916275024414 -0.31174489855766296
   vertex 0.34468907117843628 0.34468907117843628 -0.11126046627759933
  endloop
 endfacet
 facet normal 0.60368272586846661 0.25005357670511452 -0.75699430332400586
  outer loop
   vertex 0.39091575145721436 0 -0.31174489855766296
   vertex 0.21694186329841614 0 -0.45048442482948303
   vertex 0.15340106189250946 0.15340106189250946 -0.45048442482948303
  endloop
 endfacet
 facet normal 0.60368274183723303 0.25005362838786294 -0.75699427351727389
  outer loop
   vertex 0.39091575145721436 0 -0.31174489855766296
   vertex 0.15340106189250946 0.15340106189250946 -0.45048442482948303
   vertex 0.27641916275024414 0.27641916275024414 -0.31174489855766296
  endloop
 endfacet
 facet normal 0.25005362838786294 0.60368274183723303 0.75699427351727389
  outer loop
   vertex 0.15340106189250946 0.15340106189250946 0.45048442482948303
   vertex 0.27641916275024414 0.27641916275024414 0.31174489855766296
   vertex 2.3936686213902273e-17 0.39091575145721436 0.31174489855766296
  endloop
 endfacet
 facet normal 0.25005357670511458 0.60368272586846661 0.75699430332400608
  outer loop
   vertex 0.15340106189250946 0.15340106189250946 0.45048442482948303
   vertex 2.3936686213902273e-17 0.39091575145721436 0.31174489855766296
   vertex 1.3283858065930969e-17 0.21694186329841614 0.45048442482948303
  endloop
 endfacet
 facet normal 0.34963917478862877 0.8441036859043114 0.40649897281036557
  outer loop
   vertex 0.27641916275024414 0.27641916275024414 0.31174489855766296
   vertex 0.34468907117843628 0.34468907117843628 0.11126046627759933
   vertex 2.9848557632347337e-17 0.48746395111083984 0.11126046627759933
  endloop
 endfacet
 facet normal 0.34963927031001563 0.84410370173602556 0.40649885777529393
  outer loop
   vertex 0.27641916275024414 0.27641916275024414 0.31174489855766296
   vertex 2.9848557632347337e-17 0.48746395111083984 0.11126046627759933
   vertex 2.3936686213902273e-17 0.39091575145721436 0.31174489855766296
  endloop
 endfacet
 facet normal 0.38268341371609099 0.92387954023595464 -0
  outer loop
   vertex 0.34468907117843628 0.34468907117843628 0.11126046627759933
   vertex 0.34468907117843628 0.34468907117843628 -0.11126046627759933
   vertex 2.9848557632347337e-17 0.48746395111083984 -0.11126046627759933
  endloop
 endfacet
 facet normal 0.38268341371609099 0.92387954023595464 -0
  outer loop
   vertex 0.34468907117843628 0.34468907117843628 0.11126046627759933
   vertex 2.9848557632347337e-17 0.48746395111083984 -0.11126046627759933
   vertex 2.9848557632347337e-17 0.48746395111083984 0.11126046627759933
  endloop
 endfacet
 facet normal 0.34963924857103584 0.84410364925349635 -0.40649898545459112
  outer loop
   vertex 0.34468907117843628 0.34468907117843628 -0.11126046627759933
   vertex 0.27641916275024414 0.27641916275024414 -0.31174489855766296
   vertex 2.3936686213902273e-17 0.39091575145721436 -0.31174489855766296
  endloop
 endfacet
 facet normal 0.34963919222193302 0.84410372799203359 -0.40649887041951915
  outer loop
   vertex 0.34468907117843628 0.34468907117843628 -0.11126046627759933
   vertex 2.3936686213902273e-17 0.39091575145721436 -0.31174489855766296
   vertex 2.9848557632347337e-17 0.48746395111083984 -0.11126046627759933
  endloop
 endfacet
 facet normal 0.25005359370181041 0.60368276690211964 -0.75699426498634126
  outer loop
   vertex 0.27641916275024414 0.27641916275024414 -0.31174489855766296
   vertex 0.15340106189250946 0.15340106189250946 -0.45048442482948303
   vertex 1.3283858065930969e-17 0.21694186329841614 -0.45048442482948303
  endloop
 endfacet
 facet normal 0.25005361895540712 0.60368271906527471 -0.75699429479307201
  outer loop
   vertex 0.27641916275024414 0.27641916275024414 -0.31174489855766296
   vertex 1.3283858065930969e-17 0.21694186329841614 -0.45048442482948303
   vertex 2.3936686213902273e-17 0.39091575145721436 -0.31174489855766296
  endloop
 endfacet
 facet normal -0.25005361895540712 0.60368271906527471 0.75699429479307201
  outer loop
   vertex 1.3283858065930969e-17 0.21694186329841614 0.45048442482948303
   vertex 2.3936686213902273e-17 0.39091575145721436 0.31174489855766296
   vertex -0.27641916275024414 0.27641916275024414 0.31174489855766296
  endloop
 endfacet
 facet normal -0.25005359370181041 0.60368276690211964 0.75699426498634126
  outer loop
   vertex 1.3283858065930969e-17 0.21694186329841614 0.45048442482948303
   vertex -0.27641916275024414 0.27641916275024414 0.31174489855766296
   vertex -0.15340106189250946 0.15340106189250946 0.45048442482948303
  endloop
 endfacet
 facet normal -0.34963919222193296 0.8441037279920337 0.40649887041951915
  outer loop
   vertex 2.3936686213902273e-17 0.39091575145721436 0.31174489855766296
   vertex 2.9848557632347337e-17 0.48746395111083984 0.11126046627759933
   vertex -0.34468907117843628 0.34468907117843628 0.11126046627759933
  endloop
 endfacet
 facet normal -0.34963924857103584 0.84410364925349635 0.40649898545459112
  outer loop
   vertex 2.3936686213902273e-17 0.39091575145721436 0.31174489855766296
   vertex -0.34468907117843628 0.34468907117843628 0.11126046627759933
   vertex -0.27641916275024414 0.27641916275024414 0.31174489855766296
  endloop
 endfacet
 facet normal -0.38268341371609088 0.92387954023595487 0
  outer loop
   vertex 2.9848557632347337e-17 0.48746395111083984 0.11126046627759933
   vertex 2.9848557632347337e-17 0.48746395111083984 -0.11126046627759933
   vertex -0.34468907117843628 0.34468907117843628 -0.11126046627759933
  endloop
 endfacet
 facet normal -0.38268341371609088 0.92387954023595487 0
  outer loop
   vertex 2.9848557632347337e-17 0.48746395111083984 0.11126046627759933
   vertex -0.34468907117843628 0.34468907117843628 -0.11126046627759933
   vertex -0.34468907117843628 0.34468907117843628 0.11126046627759933
  endloop
 endfacet
 facet normal -0.34963927031001552 0.84410370173602567 -0.40649885777529399
  outer loop
   vertex 2.9848557632347337e-17 0.48746395111083984 -0.11126046627759933
   vertex 2.3936686213902273e-17 0.39091575145721436 -0.31174489855766296
   vertex -0.27641916275024414 0.27641916275024414 -0.31174489855766296
  endloop
 endfacet
 facet normal -0.3496391747886286 0.84410368590431151 -0.4064989728103654
  outer loop
   vertex 2.9848557632347337e-17 0.48746395111083984 -0.11126046627759933
   vertex -0.27641916275024414 0.27641916275024414 -0.31174489855766296
   vertex -0.34468907117843628 0.34468907117843628 -0.11126046627759933
  endloop
 endfacet
 facet normal -0.25005357670511452 0.60368272586846661 -0.75699430332400586
  outer loop
   vertex 2.3936686213902273e-17 0.39091575145721436 -0.31174489855766296
   vertex 1.3283858065930969e-17 0.21694186329841614 -0.45048442482948303
   vertex -0.15340106189250946 0.15340106189250946 -0.45048442482948303
  endloop
 endfacet
 facet normal -0.25005362838786294 0.60368274183723303 -0.75699427351727389
  outer loop
   vertex 2.3936686213902273e-17 0.39091575145721436 -0.31174489855766296
   vertex -0.15340106189250946 0.15340106189250946 -0.45048442482948303
   vertex -0.27641916275024414 0.27641916275024414 -0.31174489855766296
  endloop
 endfacet
 facet normal -0.60368274183723292 0.25005362838786294 0.75699427351727377
  outer loop
   vertex -0.15340106189250946 0.15340106189250946 0.45048442482948303
   vertex -0.27641916275024414 0.27641916275024414 0.31174489855766296
   vertex -0.39091575145721436 4.7873372427804546e-17 0.31174489855766296
  endloop
 endfacet
 facet normal -0.60368272586846661 0.25005357670511458 0.75699430332400586
  outer loop
   vertex -0.15340106189250946 0.15340106189250946 0.45048442482948303
   vertex -0.39091575145721436 4.7873372427804546e-17 0.31174489855766296
   vertex -0.21694186329841614 2.6567716131861939e-17 0.45048442482948303
  endloop
 endfacet
 facet normal -0.8441036859043114 0.34963917478862877 0.40649897281036557
  outer loop
   vertex -0.27641916275024414 0.27641916275024414 0.31174489855766296
   vertex -0.34468907117843628 0.34468907117843628 0.11126046627759933
   vertex -0.48746395111083984 5.9697115264694675e-17 0.11126046627759933
  endloop
 endfacet
 facet normal -0.84410370173602556 0.34963927031001563 0.40649885777529399
  outer loop
   vertex -0.27641916275024414 0.27641916275024414 0.31174489855766296
   vertex -0.48746395111083984 5.9697115264694675e-17 0.11126046627759933
   vertex -0.39091575145721436 4.7873372427804546e-17 0.31174489855766296
  endloop
 endfacet
 facet normal -0.92387954023595464 0.38268341371609099 0
  outer loop
   vertex -0.34468907117843628 0.34468907117843628 0.11126046627759933
   vertex -0.34468907117843628 0.34468907117843628 -0.11126046627759933
   vertex -0.48746395111083984 5.9697115264694675e-17 -0.11126046627759933
  endloop
 endfacet
 facet normal -0.92387954023595464 0.38268341371609099 0
  outer loop
   vertex -0.34468907117843628 0.34468907117843628 0.11126046627759933
   vertex -0.48746395111083984 5.9697115264694675e-17 -0.11126046627759933
   vertex -0.48746395111083984 5.9697115264694675e-17 0.11126046627759933
  endloop
 endfacet
 facet normal -0.84410364925349635 0.3496392485710359 -0.40649898545459112
  outer loop
   vertex -0.34468907117843628 0.34468907117843628 -0.11126046627759933
   vertex -0.27641916275024414 0.27641916275024414 -0.31174489855766296
   vertex -0.39091575145721436 4.7873372427804546e-17 -0.31174489855766296
  endloop
 endfacet
 facet normal -0.84410372799203359 0.34963919222193307 -0.4064988704195191
  outer loop
   vertex -0.34468907117843628 0.34468907117843628 -0.11126046627759933
   vertex -0.39091575145721436 4.7873372427804546e-17 -0.31174489855766296
   vertex -0.48746395111083984 5.9697115264694675e-17 -0.11126046627759933
  endloop
 endfacet
 facet normal -0.60368276690211964 0.25005359370181046 -0.75699426498634126
  outer loop
   vertex -0.27641916275024414 0.27641916275024414 -0.31174489855766296
   vertex -0.15340106189250946 0.15340106189250946 -0.45048442482948303
   vertex -0.21694186329841614 2.6567716131861939e-17 -0.45048442482948303
  endloop
 endfacet
 facet normal -0.60368271906527471 0.25005361895540712 -0.75699429479307201
  outer loop
   vertex -0.27641916275024414 0.27641916275024414 -0.31174489855766296
   vertex -0.21694186329841614 2.6567716131861939e-17 -0.45048442482948303
   vertex -0.39091575145721436 4.7873372427804546e-17 -0.31174489855766296
  endloop
 endfacet
 facet normal -0.60368271906527482 -0.25005361895540712 0.75699429479307212
  outer loop
   vertex -0.21694186329841614 2.6567716131861939e-17 0.45048442482948303
   vertex -0.39091575145721436 4.7873372427804546e-17 0.31174489855766296
   vertex -0.27641916275024414 -0.27641916275024414 0.31174489855766296
  endloop
 endfacet
 facet normal -0.60368276690211964 -0.25005359370181041 0.75699426498634126
  outer loop
   vertex -0.21694186329841614 2.6567716131861939e-17 0.45048442482948303
   vertex -0.27641916275024414 -0.27641916275024414 0.31174489855766296
   vertex -0.15340106189250946 -0.15340106189250946 0.45048442482948303
  endloop
 endfacet
 facet normal -0.8441037279920337 -0.34963919222193296 0.40649887041951915
  outer loop
   vertex -0.39091575145721436 4.7873372427804546e-17 0.31174489855766296
   vertex -0.48746395111083984 5.9697115264694675e-17 0.11126046627759933
   vertex -0.34468907117843628 -0.34468907117843628 0.11126046627759933
  endloop
 endfacet
 facet normal -0.84410364925349646 -0.34963924857103579 0.40649898545459107
  outer loop
   vertex -0.39091575145721436 4.7873372427804546e-17 0.31174489855766296
   vertex -0.34468907117843628 -0.34468907117843628 0.11126046627759933
   vertex -0.27641916275024414 -0.27641916275024414 0.31174489855766296
  endloop
 endfacet
 facet normal -0.92387954023595487 -0.38268341371609088 0
  outer loop
   vertex -0.48746395111083984 5.9697115264694675e-17 0.11126046627759933
   vertex -0.48746395111083984 5.9697115264694675e-17 -0.11126046627759933
   vertex -0.34468907117843628 -0.34468907117843628 -0.11126046627759933
  endloop
 endfacet
 facet normal -0.92387954023595487 -0.38268341371609088 0
  outer loop
   vertex -0.48746395111083984 5.9697115264694675e-17 0.11126046627759933
   vertex -0.34468907117843628 -0.34468907117843628 -0.11126046627759933
   vertex -0.34468907117843628 -0.34468907117843628 0.11126046627759933
  endloop
 endfacet
 facet normal -0.84410370173602545 -0.3496392703100154 -0.40649885777529393
  outer loop
   vertex -0.48746395111083984 5.9697115264694675e-17 -0.11126046627759933
   vertex -0.39091575145721436 4.7873372427804546e-17 -0.31174489855766296
   vertex -0.27641916275024414 -0.27641916275024414 -0.31174489855766296
  endloop
 endfacet
 facet normal -0.84410368590431151 -0.3496391747886286 -0.4064989728103654
  outer loop
   vertex -0.48746395111083984 5.9697115264694675e-17 -0.11126046627759933
   vertex -0.27641916275024414 -0.27641916275024414 -0.31174489855766296
   vertex -0.34468907117843628 -0.34468907117843628 -0.11126046627759933
  endloop
 endfacet
 facet normal -0.60368272586846672 -0.25005357670511452 -0.75699430332400597
  outer loop
   vertex -0.39091575145721436 4.7873372427804546e-17 -0.31174489855766296
   vertex -0.21694186329841614 2.6567716131861939e-17 -0.45048442482948303
   vertex -0.15340106189250946 -0.15340106189250946 -0.45048442482948303
  endloop
 endfacet
 facet normal -0.60368274183723303 -0.25005362838786288 -0.75699427351727377
  outer loop
   vertex -0.39091575145721436 4.7873372427804546e-17 -0.31174489855766296
   vertex -0.15340106189250946 -0.15340106189250946 -0.45048442482948303
   vertex -0.27641916275024414 -0.27641916275024414 -0.31174489855766296
  endloop
 endfacet
 facet normal -0.25005362838786294 -0.60368274183723292 0.75699427351727377
  outer loop
   vertex -0.15340106189250946 -0.15340106189250946 0.45048442482948303
   vertex -0.27641916275024414 -0.27641916275024414 0.31174489855766296
   vertex -7.1810056987345593e-17 -0.39091575145721436 0.31174489855766296
  endloop
 endfacet
 facet normal -0.25005357670511463 -0.60368272586846661 0.75699430332400597
  outer loop
   vertex -0.15340106189250946 -0.15340106189250946 0.45048442482948303
   vertex -7.1810056987345593e-17 -0.39091575145721436 0.31174489855766296
   vertex -3.9851573370612296e-17 -0.21694186329841614 0.45048442482948303
  endloop
 endfacet
 facet normal -0.34963917478862883 -0.8441036859043114 0.40649897281036557
  outer loop
   vertex -0.27641916275024414 -0.27641916275024414 0.31174489855766296
   vertex -0.34468907117843628 -0.34468907117843628 0.11126046627759933
   vertex -8.9545676205764462e-17 -0.48746395111083984 0.11126046627759933
  endloop
 endfacet
 facet normal -0.34963927031001563 -0.84410370173602556 0.40649885777529393
  outer loop
   vertex -0.27641916275024414 -0.27641916275024414 0.31174489855766296
   vertex -8.9545676205764462e-17 -0.48746395111083984 0.11126046627759933
   vertex -7.1810056987345593e-17 -0.39091575145721436 0.31174489855766296
  endloop
 endfacet
 facet normal -0.3826834137160911 -0.92387954023595475 0
  outer loop
   vertex -0.34468907117843628 -0.34468907117843628 0.11126046627759933
   vertex -0.34468907117843628 -0.34468907117843628 -0.11126046627759933
   vertex -8.9545676205764462e-17 -0.48746395111083984 -0.11126046627759933
  endloop
 endfacet
 facet normal -0.3826834137160911 -0.92387954023595475 0
  outer loop
   vertex -0.34468907117843628 -0.34468907117843628 0.11126046627759933
   vertex -8.9545676205764462e-17 -0.48746395111083984 -0.11126046627759933
   vertex -8.9545676205764462e-17 -0.48746395111083984 0.11126046627759933
  endloop
 endfacet
 facet normal -0.3496392485710359 -0.84410364925349635 -0.40649898545459112
  outer loop
   vertex -0.34468907117843628 -0.34468907117843628 -0.11126046627759933
   vertex -0.27641916275024414 -0.27641916275024414 -0.31174489855766296
   vertex -7.1810056987345593e-17 -0.39091575145721436 -0.31174489855766296
  endloop
 endfacet
 facet normal -0.34963919222193307 -0.84410372799203359 -0.4064988704195191
  outer loop
   vertex -0.34468907117843628 -0.34468907117843628 -0.11126046627759933
   vertex -7.1810056987345593e-17 -0.39091575145721436 -0.31174489855766296
   vertex -8.9545676205764462e-17 -0.48746395111083984 -0.11126046627759933
  endloop
 endfacet
 facet normal -0.25005359370181046 -0.60368276690211964 -0.75699426498634126
  outer loop
   vertex -0.27641916275024414 -0.27641916275024414 -0.31174489855766296
   vertex -0.15340106189250946 -0.15340106189250946 -0.45048442482948303
   vertex -3.9851573370612296e-17 -0.21694186329841614 -0.45048442482948303
  endloop
 endfacet
 facet normal -0.25005361895540718 -0.60368271906527471 -0.75699429479307201
  outer loop
   vertex -0.27641916275024414 -0.27641916275024414 -0.31174489855766296
   vertex -3.9851573370612296e-17 -0.21694186329841614 -0.45048442482948303
   vertex -7.1810056987345593e-17 -0.39091575145721436 -0.31174489855766296
  endloop
 endfacet
 facet normal 0.25005361895540712 -0.60368271906527482 0.75699429479307201
  outer loop
   vertex -3.9851573370612296e-17 -0.21694186329841614 0.45048442482948303
   vertex -7.1810056987345593e-17 -0.39091575145721436 0.31174489855766296
   vertex 0.27641916275024414 -0.27641916275024414 0.31174489855766296
  endloop
 endfacet
 facet normal 0.25005359370181035 -0.60368276690211964 0.75699426498634126
  outer loop
   vertex -3.9851573370612296e-17 -0.21694186329841614 0.45048442482948303
   vertex 0.27641916275024414 -0.27641916275024414 0.31174489855766296
   vertex 0.15340106189250946 -0.15340106189250946 0.45048442482948303
  endloop
 endfacet
 facet normal 0.3496391922219329 -0.8441037279920337 0.40649887041951915
  outer loop
   vertex -7.1810056987345593e-17 -0.39091575145721436 0.31174489855766296
   vertex -8.9545676205764462e-17 -0.48746395111083984 0.11126046627759933
   vertex 0.34468907117843628 -0.34468907117843628 0.11126046627759933
  endloop
 endfacet
 facet normal 0.34963924857103579 -0.84410364925349646 0.40649898545459107
  outer loop
   vertex -7.1810056987345593e-17 -0.39091575145721436 0.31174489855766296
   vertex 0.34468907117843628 -0.34468907117843628 0.11126046627759933
   vertex 0.27641916275024414 -0.27641916275024414 0.31174489855766296
  endloop
 endfacet
 facet normal 0.38268341371609083 -0.92387954023595487 0
  outer loop
   vertex -8.9545676205764462e-17 -0.48746395111083984 0.11126046627759933
   vertex -8.9545676205764462e-17 -0.48746395111083984 -0.11126046627759933
   vertex 0.34468907117843628 -0.34468907117843628 -0.11126046627759933
  endloop
 endfacet
 facet normal 0.38268341371609083 -0.92387954023595487 0
  outer loop
   vertex -8.9545676205764462e-17 -0.48746395111083984 0.11126046627759933
   vertex 0.34468907117843628 -0.34468907117843628 -0.11126046627759933
   vertex 0.34468907117843628 -0.34468907117843628 0.11126046627759933
  endloop
 endfacet
 facet normal 0.34963927031001546 -0.84410370173602567 -0.40649885777529393
  outer loop
   vertex -8.9545676205764462e-17 -0.48746395111083984 -0.11126046627759933
   vertex -7.1810056987345593e-17 -0.39091575145721436 -0.31174489855766296
   vertex 0.27641916275024414 -0.27641916275024414 -0.31174489855766296
  endloop
 endfacet
 facet normal 0.3496391747886286 -0.84410368590431162 -0.40649897281036551
  outer loop
   vertex -8.9545676205764462e-17 -0.48746395111083984 -0.11126046627759933
   vertex 0.27641916275024414 -0.27641916275024414 -0.31174489855766296
   vertex 0.34468907117843628 -0.34468907117843628 -0.11126046627759933
  endloop
 endfacet
 facet normal 0.25005357670511452 -0.60368272586846672 -0.75699430332400586
  outer loop
   vertex -7.1810056987345593e-17 -0.39091575145721436 -0.31174489855766296
   vertex -3.9851573370612296e-17 -0.21694186329841614 -0.45048442482948303
   vertex 0.15340106189250946 -0.15340106189250946 -0.45048442482948303
  endloop
 endfacet
 facet normal 0.25005362838786283 -0.60368274183723292 -0.75699427351727377
  outer loop
   vertex -7.1810056987345593e-17 -0.39091575145721436 -0.31174489855766296
   vertex 0.15340106189250946 -0.15340106189250946 -0.45048442482948303
   vertex 0.27641916275024414 -0.27641916275024414 -0.31174489855766296
  endloop
 endfacet
 facet normal 0.60368274183723303 -0.25005362838786294 0.75699427351727389
  outer loop
   vertex 0.15340106189250946 -0.15340106189250946 0.45048442482948303
   vertex 0.27641916275024414 -0.27641916275024414 0.31174489855766296
   vertex 0.39091575145721436 0 0.31174489855766296
  endloop
 endfacet
 facet normal 0.60368272586846661 -0.25005357670511452 0.75699430332400586
  outer loop
   vertex 0.15340106189250946 -0.15340106189250946 0.45048442482948303
   vertex 0.39091575145721436 0 0.31174489855766296
   vertex 0.21694186329841614 0 0.45048442482948303
  endloop
 endfacet
 facet normal 0.8441036859043114 -0.34963917478862866 0.40649897281036551
  outer loop
   vertex 0.27641916275024414 -0.27641916275024414 0.31174489855766296
   vertex 0.34468907117843628 -0.34468907117843628 0.11126046627759933
   vertex 0.48746395111083984 0 0.11126046627759933
  endloop
 endfacet
 facet normal 0.84410370173602567 -0.34963927031001552 0.40649885777529399
  outer loop
   vertex 0.27641916275024414 -0.27641916275024414 0.31174489855766296
   vertex 0.48746395111083984 0 0.11126046627759933
   vertex 0.39091575145721436 0 0.31174489855766296
  endloop
 endfacet
 facet normal 0.92387954023595487 -0.38268341371609099 0
  outer loop
   vertex 0.34468907117843628 -0.34468907117843628 0.11126046627759933
   vertex 0.34468907117843628 -0.34468907117843628 -0.11126046627759933
   vertex 0.48746395111083984 0 -0.11126046627759933
  endloop
 endfacet
 facet normal 0.92387954023595487 -0.38268341371609099 0
  outer loop
   vertex 0.34468907117843628 -0.34468907117843628 0.11126046627759933
   vertex 0.48746395111083984 0 -0.11126046627759933
   vertex 0.48746395111083984 0 0.11126046627759933
  endloop
 endfacet
 facet normal 0.84410364925349635 -0.34963924857103584 -0.40649898545459112
  outer loop
   vertex 0.34468907117843628 -0.34468907117843628 -0.11126046627759933
   vertex 0.27641916275024414 -0.27641916275024414 -0.31174489855766296
   vertex 0.39091575145721436 0 -0.31174489855766296
  endloop
 endfacet
 facet normal 0.84410372799203359 -0.34963919222193302 -0.40649887041951915
  outer loop
   vertex 0.34468907117843628 -0.34468907117843628 -0.11126046627759933
   vertex 0.39091575145721436 0 -0.31174489855766296
   vertex 0.48746395111083984 0 -0.11126046627759933
  endloop
 endfacet
 facet normal 0.60368276690211964 -0.25005359370181041 -0.75699426498634126
  outer loop
   vertex 0.27641916275024414 -0.27641916275024414 -0.31174489855766296
   vertex 0.15340106189250946 -0.15340106189250946 -0.45048442482948303
   vertex 0.21694186329841614 0 -0.45048442482948303
  endloop
 endfacet
 facet normal 0.60368271906527471 -0.25005361895540712 -0.75699429479307201
  outer loop
   vertex 0.27641916275024414 -0.27641916275024414 -0.31174489855766296
   vertex 0.21694186329841614 0 -0.45048442482948303
   vertex 0.39091575145721436 0 -0.31174489855766296
  endloop
 endfacet
endsolid
